<svg xmlns="http://www.w3.org/2000/svg" width="64" height="64" viewBox="0 0 64 64" fill="none">
  <defs>
    <linearGradient id="mane" x1="12" y1="16" x2="50" y2="52" gradientUnits="userSpaceOnUse">
      <stop stop-color="#4B17FF"/>
      <stop offset="0.45" stop-color="#FF2BDF"/>
      <stop offset="1" stop-color="#6ED7FF"/>
    </linearGradient>
    <linearGradient id="visor" x1="21" y1="31" x2="43" y2="31" gradientUnits="userSpaceOnUse">
      <stop stop-color="#63D9FF"/>
      <stop offset="1" stop-color="#FF56F6"/>
    </linearGradient>
    <linearGradient id="crown" x1="19" y1="11" x2="45" y2="21" gradientUnits="userSpaceOnUse">
      <stop stop-color="#FF68F7"/>
      <stop offset="0.55" stop-color="#FFC56D"/>
      <stop offset="1" stop-color="#D861FF"/>
    </linearGradient>
  </defs>
  <rect width="64" height="64" rx="14" fill="#050505"/>
  <path d="M18 20c2-5 6.7-8 14-8s12 3 14 8l-4 6 5 6-4 5 2 9-7-5-6 7-6-7-7 5 2-9-4-5 5-6-4-6z" fill="url(#mane)"/>
  <path d="M32 18l4-6 4 5 6-4-2 9H20l-2-9 6 4 4-5 4 6z" fill="url(#crown)"/>
  <circle cx="22" cy="12" r="2.5" fill="#FF7AF8"/>
  <circle cx="32" cy="9" r="2.5" fill="#FF7AF8"/>
  <circle cx="42" cy="12" r="2.5" fill="#FF7AF8"/>
  <path d="M24 26c2.2-2.2 4.8-3.3 8-3.3s5.8 1.1 8 3.3l2 4c0 6.4-4.5 11.5-10 11.5S22 36.4 22 30l2-4z" fill="#5B1D6E"/>
  <path d="M25.5 26.5c1.8-1.8 3.9-2.7 6.5-2.7s4.7.9 6.5 2.7l1.4 3c0 5.2-3.5 9.5-7.9 9.5s-7.9-4.3-7.9-9.5l1.4-3z" fill="#33104B"/>
  <rect x="20.5" y="27.5" width="23" height="7" rx="3.5" fill="url(#visor)" stroke="#FFD7FF" stroke-width="1.2"/>
  <circle cx="26.5" cy="31" r="4.1" fill="#20162C" stroke="#FFE2FF" stroke-width="1.2"/>
  <circle cx="37.5" cy="31" r="4.1" fill="#20162C" stroke="#FFE2FF" stroke-width="1.2"/>
  <path d="M30.7 31h2.6" stroke="#FFE2FF" stroke-width="1.2" stroke-linecap="round"/>
  <circle cx="26.5" cy="31" r="1.4" fill="#FFCC74"/>
  <circle cx="37.5" cy="31" r="1.4" fill="#FFCC74"/>
  <path d="M29 38c1.6 1 4.4 1 6 0" stroke="#FFCC74" stroke-width="1.3" stroke-linecap="round"/>
  <path d="M32 33.7v3" stroke="#FFCC74" stroke-width="1.1" stroke-linecap="round"/>
</svg>
