<svg xmlns="http://www.w3.org/2000/svg" width="64" height="64" viewBox="0 0 64 64" fill="none">
  <rect width="64" height="64" rx="14" fill="#050505"/>
  <path d="M31.9 7l5.3 13.4h-10.6L31.9 7z" fill="#fff"/>
  <path d="M57 31.9l-13.4 5.3V26.6L57 31.9z" fill="#fff"/>
  <path d="M31.9 57l-5.3-13.4h10.6L31.9 57z" fill="#fff"/>
  <path d="M7 31.9l13.4-5.3v10.6L7 31.9z" fill="#fff"/>
  <path d="M48.6 14.3l-6 13.1-7.5-7.5 13.5-5.6z" fill="#fff"/>
  <path d="M49.7 48.6l-13.1-6 7.5-7.5 5.6 13.5z" fill="#fff"/>
  <path d="M15.4 49.7l6-13.1 7.5 7.5-13.5 5.6z" fill="#fff"/>
  <path d="M14.3 15.4l13.1 6-7.5 7.5-5.6-13.5z" fill="#fff"/>
</svg>
